<svg id="Capa_1" data-name="Capa 1" xmlns="http://www.w3.org/2000/svg" viewBox="0 0 250 250"><defs><style>.cls-1{fill:#047cfe;}.cls-2{fill:#1d1d1b;}</style></defs><path class="cls-1" d="M186.38,51.17c17.64,0,30.69,3.94,38.78,11.71S237.3,80.65,237.3,93.2c0,18.56-8.44,31-25.81,38l-2.77,1.11,1.1,2.78,25.28,63.77H212.32l-23.14-61.21-.73-1.94h-44v63.15h-21.7V51.17h63.65M144.43,119.5h37.44c10.68,0,18.84-2.37,24.25-7s8.36-11.38,8.36-19.61c0-7.63-2.77-13.9-8.24-18.65s-12.78-7-22.11-7h-39.7V119.5m41.95-71.33H119.73V201.83h27.7V138.68h38.95l23.86,63.15h29.27L212.61,134Q240.3,122.81,240.3,93.2q0-19.94-13.06-32.48T186.38,48.17ZM147.43,116.5V70.23h36.7q12.93,0,20.15,6.25t7.2,16.38q0,11-7.32,17.34t-22.29,6.3Z"/><path class="cls-1" d="M80.29,48.17H23.67V201.83H64.16V179.2h-12V70H78.49q18.57,0,29.89,15.59t11.31,38.11q0,27.57-12.94,41.54A43.43,43.43,0,0,1,91.46,176.1v24.31a68.6,68.6,0,0,0,28.27-11.23v-129Q103.35,48.19,80.29,48.17Z"/><path d="M82.09,123.87l2-2.1-2.2-.48c.1-.44.08-.93.25-1,2-1,4-2.27,6.09-2.69,4.27-.85,12.06,3.48,14,7.36a7.27,7.27,0,0,1-3.25,9.83,70.79,70.79,0,0,1-12.65,4.94c-4.14,1.3-8.47,2-12.62,3.22-3.24,1-6.75,2.17-7.17,6.2-.44,4.24,2.58,6.39,5.92,8.11l1.76.93c-4.16,3-4.66,3-8.37-.07-5.84-4.82-6.1-12.75.16-16.94,4.34-2.9,9.51-4.63,14.45-6.53,4-1.56,8.36-2.42,12.4-4,1.43-.55,3.5-2.46,3.35-3.45-.32-2.11-2.44-2.34-4.67-2.27C88.66,125,85.79,124.33,82.09,123.87Z"/><path d="M10.29,78.51c13.4.84,26.81,1.62,40.21,2.55,10.23.71,16.53,7.37,17.8,18.7a86,86,0,0,1,.54,13.68c-.59-1.67-1.3-3.32-1.76-5-.75-2.84-1.21-5.75-2-8.57-2.78-9.7-8.81-14.52-18.89-15-6.62-.29-13.27-.16-19.89-.5a40.46,40.46,0,0,1-9.93-1.6C14,82,11.91,80.19,9.7,78.85Z"/><path d="M84.41,113.11c.69-5.81,1-11.71,2.15-17.41,1.92-9.12,8.17-14.1,17.5-14.69,10.63-.67,21.26-1.22,31.88-2a77.52,77.52,0,0,0,8.24-1.48,8.56,8.56,0,0,1-6.54,5.27,69,69,0,0,1-11.25,1.61c-6.29.34-12.61.16-18.91.45-9.55.45-15.53,5.17-18.34,14.34-.79,2.59-1.23,5.28-1.91,7.91-.54,2.06-1.22,4.08-1.84,6.13Z"/><path d="M73.9,134.78l-7.31,3.8a3.68,3.68,0,0,1-1.18.5c-3.61.46-12.61-4.65-13.66-8.18a9.29,9.29,0,0,1,.19-5.92c2.42-5.59,11.71-9,17.28-6.57a27.7,27.7,0,0,1,3.62,2.41l-2.62,1.05,1.38,2c-3.41.4-6.35,1.07-9.28,1-2.26-.07-4.24.35-4.56,2.44-.15.93,1.84,2.72,3.2,3.25C65.08,132.18,69.37,133.35,73.9,134.78Z"/><path d="M75.14,177.24c-1.44,2-2.73,1.77-4.35.69-6.05-4.05-6.24-11.72-.13-15.63,2.43-1.56,5.27-2.51,7.91-3.75,1.57-.73,3.17-1.41,4.68-2.27,2.61-1.48,4.33-3.63,4.28-6.79s-2.36-4.43-4.71-5.67c-.55-.29-1.11-.57-2.22-1.13,1.43-.37,2.29-.62,3.17-.81,5.21-1.16,8.32,1.2,8.73,6.68a10.35,10.35,0,0,1-5,10,88.33,88.33,0,0,1-9.29,4.63c-1.07.51-2.23.84-3.3,1.35-6.1,2.89-6.63,7.17-1.43,11.42Z"/><path d="M16,86.31c11.14.81,22.29,1.52,33.41,2.51a18.71,18.71,0,0,1,6.72,2.3c1.35.71,2.26,2.26,3.12,3.7-8.91-2.6-17.9-1.15-26.72-1.91a53.79,53.79,0,0,1-10.9-1.68c-2.27-.67-4.16-2.65-6.22-4Z"/><path d="M139.13,86.4c-2.22,1.79-3.69,3.64-5.59,4.36a32.48,32.48,0,0,1-9.15,2c-5.84.42-11.71.26-17.56.58-4,.22-7.9.86-12.67,1.41,1.65-1.55,2.79-3.33,4.39-4a32.64,32.64,0,0,1,9.35-2.46C117.93,87.49,128,87.05,139.13,86.4Z"/><path d="M69.63,80.79a7.37,7.37,0,1,1,7.44,7.39A7.47,7.47,0,0,1,69.63,80.79Z"/><path d="M75.15,134.64V94.87h4c0,.87.17,1.81.16,2.75-.17,11.28-.42,22.56-.47,33.84C78.86,133.82,77.82,134.51,75.15,134.64Z"/><path d="M62,103c-5.38-.36-10.74-.67-16.08-1.1-4-.33-8-.6-11.91-1.32a7.15,7.15,0,0,1-5.88-5.4c8.5.72,17,1.25,25.41,2.22C58.67,97.94,60.86,99.84,62,103Z"/><path d="M91.91,102.87c.74-2.75,3.23-4.42,6.17-4.9,5.23-.85,10.54-1.22,15.83-1.76,3.86-.39,7.73-.73,12-1.13a6.63,6.63,0,0,1-4.71,5,65.67,65.67,0,0,1-10.53,1.71C104.48,102.31,98.25,102.52,91.91,102.87Z"/><path d="M116.53,103.73c-1.34,4.54-5,5.56-8.87,5.9-3.24.29-6.52.06-9.77.32-2.45.2-4.87.81-7.71,1.3a5.83,5.83,0,0,1,4.3-4.75,60.76,60.76,0,0,1,8.93-1.5C107.69,104.49,112,104.16,116.53,103.73Z"/><path d="M37.32,103.82c5.79.46,11,.6,16.12,1.39a34.39,34.39,0,0,1,8.71,3.07c.84.38,1.2,1.83,1.58,2.44-5.45-.33-10.82-.43-16.12-1.09A28.71,28.71,0,0,1,39.44,107C38.48,106.56,38.05,105,37.32,103.82Z"/><path d="M71.47,194.12c-3.69-4.59-3.4-8.9.81-12.41,2.74-2.29,5.91-4,8.74-6.23,3.06-2.37,3.81-5.13,2.26-7.63a45.29,45.29,0,0,0-2.78-3.68c3.67-2,5.5-1.31,6.93,3.21,1.23,3.89-.29,7.94-4.11,10.39-2.18,1.39-4.57,2.48-6.85,3.74C70.52,184.79,69.48,187.24,71.47,194.12Z"/><path d="M87,87.13c-2.36,4.29-6,6.38-10.7,6.11-4.23-.24-7.48-2.31-9.94-6.82C73.57,91.23,80.24,91.27,87,87.13Z"/><path d="M75.45,158.15c0-4.46.08-8.56,0-12.64-.06-2.16,1-2.55,2.77-2.45C79.58,149.47,78.46,157.15,75.45,158.15Z"/><path d="M81.92,194.56c2.73-5.84,2.14-8.13-2.61-13,.89.1,2-.11,2.63.35C86,184.91,86.12,190.35,81.92,194.56Z"/><path d="M77,176.86c-1.82-7.45-1.42-11,1.16-12.22C78,168.88,78.59,173,77,176.86Z"/><path d="M76.69,200.62v-18h.75v18Z"/><path class="cls-2" d="M82.09,123.87l2-2.1-2.2-.48c.1-.44.08-.93.25-1,2-1,4-2.27,6.09-2.69,4.27-.85,12.06,3.48,14,7.36a7.27,7.27,0,0,1-3.25,9.83,70.79,70.79,0,0,1-12.65,4.94c-4.14,1.3-8.47,2-12.62,3.22-3.24,1-6.75,2.17-7.17,6.2-.44,4.24,2.58,6.39,5.92,8.11l1.76.93c-4.16,3-4.66,3-8.37-.07-5.84-4.82-6.1-12.75.16-16.94,4.34-2.9,9.51-4.63,14.45-6.53,4-1.56,8.36-2.42,12.4-4,1.43-.55,3.5-2.46,3.35-3.45-.32-2.11-2.44-2.34-4.67-2.27C88.66,125,85.79,124.33,82.09,123.87Z"/><path class="cls-2" d="M10.29,78.51c13.4.84,26.81,1.62,40.21,2.55,10.23.71,16.53,7.37,17.8,18.7a86,86,0,0,1,.54,13.68c-.59-1.67-1.3-3.32-1.76-5-.75-2.84-1.21-5.75-2-8.57-2.78-9.7-8.81-14.52-18.89-15-6.62-.29-13.27-.16-19.89-.5a40.46,40.46,0,0,1-9.93-1.6C14,82,11.91,80.19,9.7,78.85Z"/><path class="cls-2" d="M84.41,113.11c.69-5.81,1-11.71,2.15-17.41,1.92-9.12,8.17-14.1,17.5-14.69,10.63-.67,21.26-1.22,31.88-2a77.52,77.52,0,0,0,8.24-1.48,8.56,8.56,0,0,1-6.54,5.27,69,69,0,0,1-11.25,1.61c-6.29.34-12.61.16-18.91.45-9.55.45-15.53,5.17-18.34,14.34-.79,2.59-1.23,5.28-1.91,7.91-.54,2.06-1.22,4.08-1.84,6.13Z"/><path class="cls-2" d="M73.9,134.78l-7.31,3.8a3.68,3.68,0,0,1-1.18.5c-3.61.46-12.61-4.65-13.66-8.18a9.29,9.29,0,0,1,.19-5.92c2.42-5.59,11.71-9,17.28-6.57a27.7,27.7,0,0,1,3.62,2.41l-2.62,1.05,1.38,2c-3.41.4-6.35,1.07-9.28,1-2.26-.07-4.24.35-4.56,2.44-.15.93,1.84,2.72,3.2,3.25C65.08,132.18,69.37,133.35,73.9,134.78Z"/><path class="cls-2" d="M75.14,177.24c-1.44,2-2.73,1.77-4.35.69-6.05-4.05-6.24-11.72-.13-15.63,2.43-1.56,5.27-2.51,7.91-3.75,1.57-.73,3.17-1.41,4.68-2.27,2.61-1.48,4.33-3.63,4.28-6.79s-2.36-4.43-4.71-5.67c-.55-.29-1.11-.57-2.22-1.13,1.43-.37,2.29-.62,3.17-.81,5.21-1.16,8.32,1.2,8.73,6.68a10.35,10.35,0,0,1-5,10,88.33,88.33,0,0,1-9.29,4.63c-1.07.51-2.23.84-3.3,1.35-6.1,2.89-6.63,7.17-1.43,11.42Z"/><path class="cls-2" d="M16,86.31c11.14.81,22.29,1.52,33.41,2.51a18.71,18.71,0,0,1,6.72,2.3c1.35.71,2.26,2.26,3.12,3.7-8.91-2.6-17.9-1.15-26.72-1.91a53.79,53.79,0,0,1-10.9-1.68c-2.27-.67-4.16-2.65-6.22-4Z"/><path class="cls-2" d="M139.13,86.4c-2.22,1.79-3.69,3.64-5.59,4.36a32.48,32.48,0,0,1-9.15,2c-5.84.42-11.71.26-17.56.58-4,.22-7.9.86-12.67,1.41,1.65-1.55,2.79-3.33,4.39-4a32.64,32.64,0,0,1,9.35-2.46C117.93,87.49,128,87.05,139.13,86.4Z"/><path class="cls-2" d="M69.63,80.79a7.37,7.37,0,1,1,7.44,7.39A7.47,7.47,0,0,1,69.63,80.79Z"/><path class="cls-2" d="M75.15,134.64V94.87h4c0,.87.17,1.81.16,2.75-.17,11.28-.42,22.56-.47,33.84C78.86,133.82,77.82,134.51,75.15,134.64Z"/><path class="cls-2" d="M62,103c-5.38-.36-10.74-.67-16.08-1.1-4-.33-8-.6-11.91-1.32a7.15,7.15,0,0,1-5.88-5.4c8.5.72,17,1.25,25.41,2.22C58.67,97.94,60.86,99.84,62,103Z"/><path class="cls-2" d="M91.91,102.87c.74-2.75,3.23-4.42,6.17-4.9,5.23-.85,10.54-1.22,15.83-1.76,3.86-.39,7.73-.73,12-1.13a6.63,6.63,0,0,1-4.71,5,65.67,65.67,0,0,1-10.53,1.71C104.48,102.31,98.25,102.52,91.91,102.87Z"/><path class="cls-2" d="M116.53,103.73c-1.34,4.54-5,5.56-8.87,5.9-3.24.29-6.52.06-9.77.32-2.45.2-4.87.81-7.71,1.3a5.83,5.83,0,0,1,4.3-4.75,60.76,60.76,0,0,1,8.93-1.5C107.69,104.49,112,104.16,116.53,103.73Z"/><path class="cls-2" d="M37.32,103.82c5.79.46,11,.6,16.12,1.39a34.39,34.39,0,0,1,8.71,3.07c.84.38,1.2,1.83,1.58,2.44-5.45-.33-10.82-.43-16.12-1.09A28.71,28.71,0,0,1,39.44,107C38.48,106.56,38.05,105,37.32,103.82Z"/><path class="cls-2" d="M71.47,194.12c-3.69-4.59-3.4-8.9.81-12.41,2.74-2.29,5.91-4,8.74-6.23,3.06-2.37,3.81-5.13,2.26-7.63a45.29,45.29,0,0,0-2.78-3.68c3.67-2,5.5-1.31,6.93,3.21,1.23,3.89-.29,7.94-4.11,10.39-2.18,1.39-4.57,2.48-6.85,3.74C70.52,184.79,69.48,187.24,71.47,194.12Z"/><path class="cls-2" d="M87,87.13c-2.36,4.29-6,6.38-10.7,6.11-4.23-.24-7.48-2.31-9.94-6.82C73.57,91.23,80.24,91.27,87,87.13Z"/><path class="cls-2" d="M75.45,158.15c0-4.46.08-8.56,0-12.64-.06-2.16,1-2.55,2.77-2.45C79.58,149.47,78.46,157.15,75.45,158.15Z"/><path class="cls-2" d="M81.92,194.56c2.73-5.84,2.14-8.13-2.61-13,.89.1,2-.11,2.63.35C86,184.91,86.12,190.35,81.92,194.56Z"/><path class="cls-2" d="M77,176.86c-1.82-7.45-1.42-11,1.16-12.22C78,168.88,78.59,173,77,176.86Z"/><path class="cls-2" d="M76.69,200.62v-18h.75v18Z"/><path class="cls-1" d="M75.23,179.2H64.16v22.63H74.1a101.69,101.69,0,0,0,17.36-1.42V176.1A42.19,42.19,0,0,1,75.23,179.2Z"/></svg>